<svg xmlns="http://www.w3.org/2000/svg" xmlns:xlink="http://www.w3.org/1999/xlink" viewBox="0 0 960 560"><defs><path id="a" d="M394 195h170.88v171H394z"/></defs><clipPath id="b"><use xlink:href="#a" overflow="visible"/></clipPath><path d="M499.441 280.192l60.75-60.746c5.594-5.594 5.594-14.66 0-20.25-5.589-5.594-14.656-5.594-20.25 0l-60.75 60.75-60.75-60.75c-5.589-5.594-14.656-5.594-20.246 0-5.593 5.59-5.593 14.656 0 20.25l60.746 60.746-60.746 60.75c-5.593 5.594-5.593 14.66 0 20.25 5.59 5.594 14.657 5.594 20.246 0l60.75-60.75 60.75 60.75c5.594 5.594 14.661 5.594 20.25 0 5.594-5.594 5.594-14.656 0-20.25l-60.75-60.75zm0 0" clip-path="url(#b)" fill-rule="evenodd" clip-rule="evenodd"/></svg>