<svg xmlns="http://www.w3.org/2000/svg" xmlns:xlink="http://www.w3.org/1999/xlink" viewBox="0 0 735 560" fill="#666"><defs><path id="a" d="M0 0h735v560H0z"/></defs><clipPath id="b"><use xlink:href="#a" overflow="visible"/></clipPath><path d="M8.3 308C2.7 302.4 0 293.9 0 288.3s2.7-13.9 8.3-19.5l39.2-39.2c11.2-11.2 28-11.2 39.2 0l2.8 2.9 154.1 165.1c5.6 5.6 13.9 5.6 19.6 0L638.3 8.3h2.9c11.2-11.1 28-11.1 39.2 0l39.1 39.2c11.2 11.2 11.2 28 0 39.2l-447.8 465c-5.6 5.6-11.2 8.3-19.7 8.3-8.3 0-13.9-2.7-19.5-8.3L13.9 316.4 8.3 308z" clip-path="url(#b)"/></svg>