<svg xmlns="http://www.w3.org/2000/svg" viewBox="0 0 520 558"><path d="M305.6 480.6c-11.6 0-21 9.5-21 21 0 11.6 9.5 21 21 21h192.9c11.6 0 21-9.5 21-21V166.8c0-6-2.5-11.6-6.7-15.4L355 5.8c-3.9-3.5-9.1-5.6-14.4-5.6h-235c-11.6 0-21 9.5-21 21v227.9c0 11.6 9.5 21 21 21 11.6 0 21-9.5 21-21V42.3h168.3v182.4c0 11.6 9.5 21 21 21h157.8c1.1 0 2.5 0 3.5-.3v235.3l-171.6-.1zm168.3-277H337.1V46.5l140.3 129.4V204c-1-.4-2.4-.4-3.5-.4zM.5 449.1c0-11.6 9.5-21 21-21h63.1v-66.6c0-11.6 9.5-21 21-21 11.6 0 21 9.5 21 21V428h70.1c11.6 0 21 9.5 21 21 0 11.6-9.5 21-21 21h-70.1v66.6c0 11.6-9.5 21-21 21-11.6 0-21-9.5-21-21V470H21.5c-11.5.1-21-9.3-21-20.9z"/></svg>