<svg xmlns="http://www.w3.org/2000/svg" viewBox="0 0 560 560"><path d="M369 116.7H191c-41 0-74.3 33.4-74.3 74.4V369c0 41 33.3 74.3 74.3 74.3h178c41 0 74.3-33.3 74.3-74.3V191c0-41-33.3-74.3-74.3-74.3zm-89 265.6c-56.4 0-102.3-45.9-102.3-102.3S223.6 177.7 280 177.7 382.3 223.6 382.3 280 336.4 382.3 280 382.3zm124.9-190.4c-4.8 4.8-11.5 7.6-18.3 7.6-6.8 0-13.5-2.8-18.2-7.6-4.8-4.8-7.6-11.5-7.6-18.3 0-6.8 2.8-13.5 7.6-18.3 4.8-4.8 11.5-7.6 18.2-7.6 6.8 0 13.5 2.7 18.3 7.6 4.8 4.8 7.6 11.5 7.6 18.3-.1 6.8-2.8 13.5-7.6 18.3z"/><path d="M280 0C125.4 0 0 125.4 0 280s125.4 280 280 280 280-125.4 280-280S434.6 0 280 0zm89 478.5H191c-60.4 0-109.6-49.2-109.6-109.6V191c0-60.4 49.2-109.6 109.6-109.6h178c60.4 0 109.6 49.2 109.6 109.6v178c-.1 60.4-49.2 109.5-109.6 109.5z"/><path d="M280 212.9c-37 0-67.1 30.1-67.1 67.1 0 37 30.1 67.1 67.1 67.1s67.1-30.1 67.1-67.1c0-37-30.1-67.1-67.1-67.1z"/></svg>