<svg xmlns="http://www.w3.org/2000/svg" viewBox="0 0 86 100"><path d="M24.985 51.343c-.455-.543-.886-.968-1.211-1.464-.636-.97-.705-2.192.32-2.679 1.917-.91 2.082-2.634 2.506-4.275.857-3.311 1.946-6.514 3.813-9.422.223-.347.178-1.099-.053-1.468a455.939 455.939 0 0 0-6.735-10.443c-1.312-1.97-2.041-2.073-3.852-.738-3.462 2.552-5.626 5.998-6.842 10.154-4.991-2.789-7.15-7.359-8.353-12.575 1.879-.293 3.804-.312 5.516-.926 2.576-.924 5.016-2.236 7.474-3.463.285-.143.5-.829.433-1.207-.352-2-.193-2.318 1.673-3.171 1.069-.489 2.034-.921 3.221-.143.384.252 1.337.066 1.773-.262 2.091-1.573 4.085-3.272 6.128-4.909C34 1.784 37.581.144 41.753.008c.321-.011.644-.013.965.009.119.008.232.099.623.278-.634.433-1.095.818-1.615 1.093-2.975 1.573-5.863 3.246-8.358 5.565-2.385 2.218-4.345 4.738-5.947 7.553-.38.668-.441 1.274.06 2.029a316.92 316.92 0 0 1 5.843 9.18c.686 1.114 1.2 2.333 1.788 3.495 1.828-.843 3.229-3.682 2.654-5.27-.119-.33-.705-.646-1.108-.692-2.205-.252-2.847-.658-3.322-2.295-.482-1.66-.02-2.828 1.5-4.078 3.428-2.82 7.366-2.882 11.396-2.004 4.211.917 7.717 3.163 10.687 6.256.506.527.95 1.114 1.597 1.878 1.069-1.987 2.389-3.588 2.747-5.38.281-1.409-.411-3.152-1.046-4.579-1.711-3.848-4.65-6.567-8.432-8.387-2.074-.998-4.153-1.984-6.212-3.011-.455-.227-.834-.609-1.247-.919l.218-.452c.475.027.967-.019 1.42.094 5.279 1.311 10.541 2.692 15.12 5.809 1.173.798 2.263 1.722 3.355 2.632.665.554 1.232.752 2.104.298 1.756-.917 3.079.432 4.325 1.274.417.282.259 1.649.104 2.471-.128.682-.363 1.119.45 1.563 3.976 2.17 8.17 3.486 12.733 3.525.041 4.479-6.774 13.179-11.087 14.175.118-.72.299-1.37.321-2.026.142-4.105-1.423-7.515-4.309-10.368-.861-.851-1.585-.782-2.172.322-1.555 2.927-3.136 5.839-4.661 8.781-.19.366-.207.889-.136 1.311.729 4.301 1.517 8.592 2.234 12.895.234 1.405.314 2.835.456 4.255.099.991.05 1.911 1.343 2.399 1.008.381 1.062 1.653.416 2.367-1.577 1.742-1.414 3.632-.744 5.56.751 2.159 1.855 4.139 3.902 5.966-.204-2.366-.658-4.549 2.197-5.302-.255-.635-.468-1.17-.684-1.703-.655-1.609-.541-2.282.938-3.113.923-.518 1.211-1.067 1.009-2.066-.083-.409-.009-1.021.251-1.298 1.103-1.174 2.218-2.37 3.499-3.334.854-.643 1.084-1.044.237-1.768-.209-.18-.406-.375-.602-.569-1.503-1.485-1.581-2.176-.451-3.939-1.384-2.514-1.149-3.43 1.099-4.288-.038-2.463.375-3.378 1.668-3.693 1.259-.307 2.239.413 3 2.203 2.131.113 2.957 1.515 2.047 3.715-.384.927-.544 1.415.633 1.842 1.148.416.976 1.478.464 2.327-.418.694-.214 1.289-.215 1.989-.001 1.262-.641 2.523-1 3.739.194.777.42 1.686.651 2.595.063.247.064.607.226.715 1.59 1.064 1.136 2.449.607 3.815-.262.678-.665 1.302-1.004 1.951 1.011 1.613.847 2.852-.837 4.807-.772.895-1.328 1.52-.792 2.939.324.857-.429 2.231-.936 3.254-.351.706-1.157 1.173-1.67 1.817-.325.408-.79 1.039-.674 1.408.607 1.936-1.427 2.953-1.479 4.62-.001.034-.056.084-.094.095-1.951.56-2.546 2.421-3.641 3.8-.163.205-.339.442-.388.689-.557 2.751-1.02 3.227-3.713 3.762-.214.043-.416.139-.612.206.379 2.897-.548 3.932-3.449 3.818-1.033-.041-1.652.175-1.754 1.359-.089 1.034-.785 1.53-1.842 1.72-2.151.387-4.073-.435-6.078-.905-.579-.136-1.593-.059-1.838.305-1.072 1.59-2.531 1.999-4.339 1.748l-.168.399c.884.641 1.697 1.431 2.667 1.889 1.408.664 2.961 1.017 4.384 1.653.531.237 1.308 1.201 1.229 1.314-.466.668-1.072 1.366-1.793 1.677-.415.179-1.189-.268-1.707-.587-.87-.534-1.59-1.364-2.506-1.763-3.423-1.489-4.021-1.881-5.995-4.666-.598.642-1.298 1.186-1.724 1.894-.887 1.477-2.234 2.274-3.737 2.911-1.088.461-2.252.771-2.793 2.044-.107.252-.826.476-1.139.365-.8-.284-1.529-.765-2.395-1.224 1.628-3.121 5.157-2.792 7.38-4.624-1.775.838-3.414.396-5.053-.345-.489-.221-1.054-.306-1.593-.377-3.465-.455-6.933-.882-10.397-1.336-.402-.052-.79-.213-1.352-.37l4.937-2.56-.018-.45c-6.549 2.07-10.845-1.48-14.98-5.432l.086-.42 4.163-.307.096-.339c-.565-.295-1.11-.641-1.699-.878-5.569-2.234-10.315-5.425-13.077-11.264 3.37 1.707 6.871.906 10.28 1.176-1.196-.68-2.228-1.648-3.867-1.041-.545.202-1.732-.273-2.049-.792-.341-.558-.005-1.529.034-2.276-1.881-2.829-4.089-5.665-5.754-8.79C-.095 55.118.134 51.484.407 47.564c1.797 2.4 2.986 4.94 5.732 6.495-.639-1.43-1.134-2.617-1.695-3.773-1.026-2.114-1.039-4.267-.256-6.431.61-1.686 1.407-3.309 1.952-5.013.71-2.216 1.254-4.484 1.908-6.873 1.799 3.655 4.444 6.974 3.695 11.474-.339 2.039-.145 4.031.767 5.931 1.631 3.394 2.295 6.877.907 10.541-.14.37-.13.796.054 1.337l1.248-1.617 6.787 10.488v-1.886l7.357 6.967.414-1.026 1.043 1.34c.519-1.133.93-2.275 1.532-3.305 2.904-4.966 5.861-9.903 8.798-14.849.023-.04.064-.076.07-.118.094-.58.184-1.16.275-1.74-.6.077-1.293-.016-1.784.257-3.491 1.94-7.152 3.419-11.101 4.036-3.234.506-6.431.209-9.48-1.087-.501-.213-1.039-.466-1.394-.853-.305-.333-.555-.914-.484-1.326.047-.273.681-.571 1.088-.636 2.994-.488 5.19-2.186 7.145-4.554zm12.372 37.018c.48.223 1.002.384 1.43.681 1.366.949 2.018.868 2.968-.327-.921-.124-1.933-.284-2.95-.386-.478-.048-.968.018-1.452.033-.182-.163-.338-.401-.551-.476-3.644-1.293-6.652.052-9.727 3.428l4.669-.946-.03-.368-1.971-.351.064-.415 6.104.53.091-.307-3.162-1.062c.961-.575 1.733-.415 2.484.139.664.49 1.277 1.076 2 1.448.445.229 1.056.135 1.592.186l.073-.441c-.543-.296-1.094-.579-1.619-.904-.073-.046-.013-.303-.013-.462zm25.169-45.798l.377-.234c-1.172-2.17-2.188-4.443-3.549-6.487-2.929-4.399-7.123-7.006-12.351-7.755-4.627-.663-8.966.448-13.013 2.693-2.511 1.393-2.558 3.014-.243 4.776l.4-2.298 1.71 1.655-1.349.212 1.39 1.683c.273.178.368.732.181.856-1.487.984-.76 1.934.069 2.945l-2.911 1.989.142.217 1.709-.692c.828.688 1.46 1.46 2.272 1.786.42.169.937.381 1.367.457 1.082.191 2.221.064 3.696.064 2.464-2.168 4.682-1.33 6.023 2.724l.941.129-1.122.564.568.594 1.023-.568c.515 1.994-1.296 1.505-1.998 2.134 4.188 1.08 8.335 2.444 12.168-.823-.024-.22-.038-.495-.086-.765-.169-.949.881-1.791.255-2.8-.028-.045.332-.452.543-.486.163-.026.402.248.562.428.359.402.69.828 1.032 1.245 1.136 1.353-.472 2.013-.861 3.12.613-.234 1.528-.493 1.589-.885.194-1.254.072-2.557.072-3.954l-1.163.385a19.525 19.525 0 0 1-.175-.227l.852-1.111-.972-.657.852-.914zM34.517 78.334c1.297.849 2.54 1.697 3.82 2.483.446.274 1.052.651 1.471.542 1.664-.433 3.07.024 4.438.898 1.123.718 2.168.773 3.239-.229 1.193-1.116 2.63-1.371 4.24-.926.414.114.994-.15 1.426-.377.839-.441 1.585-1.081 2.45-1.447.715-.302 1.546-.328 2.081-.43-.852-1.1-1.783-2.043-2.411-3.156-2.866-5.084-5.645-10.218-8.462-15.33-.139-.253-.342-.471-.636-.868l-1.851 3.404c-2.062 3.795-4.073 7.619-6.208 11.372-.919 1.612-1.867 3.288-3.597 4.064zM48.522 53.69l-.516.096c-.064.423-.202.85-.178 1.267.216 3.697 1.685 6.915 4.306 9.436 4.438 4.269 10.035 5.789 16.027 5.985a12.788 12.788 0 0 0 4.437-.669c1.869-.635 1.95-1.382.287-2.43-3.317-2.09-5.967-4.738-7.528-8.359-.921-2.135-1.652-4.351-.256-6.579.383-.611.943-1.259.284-1.793-.413-.335-1.255-.309-1.864-.206-2.167.364-4.303.938-6.478 1.222-1.814.236-3.668.152-5.5.272-.364.024-.709.329-1.063.504.354.208.695.448 1.07.609.197.084.455.016.684.039 3.629.35 7.14-.391 10.657-1.116.379-.078.815.117 1.224.185-.235.286-.424.636-.714.844-.481.345-1.026.599-1.648.95l1.227.522v2.084l-.862.074.183 2.198-.23.039-1.176-2.739-.649.511-.065-.904-.298-.18-.345.894c-.489-.598-.552-1.359-.84-1.457-.97-.328-2.051-.018-2.645.715-.466.575-.77 1.682-.536 2.334a9.273 9.273 0 0 0 2.022 3.244c2.221 2.286 4.34 4.879 8.085 4.534l-.145.363 1.495.752v.87l4.273-.293c.019.123.039.246.057.37-.35.118-.691.283-1.051.347-3.905.689-7.632-.134-11.17-1.66-4.902-2.116-7.845-6.06-9.582-11.006-.23-.658-.648-1.248-.979-1.869zm12.923-20.256c-.194-3.693-7.808-13.31-10.477-12.836.1-1.125-.405-1.305-1.223-.972-1.368-.373-2.015-2.476-3.977-1.455-1.12-1.296-2.721-.764-4.059-.874-1.537-.127-3.127.388-4.813.641.405-.334.753-.779 1.209-.97 2.314-.971 4.765-1.274 7.171-.639 5.22 1.378 9.336 4.427 12.509 8.778 2.03 2.784 3.862 5.665 4.564 9.135.074-.396.067-.76-.022-1.103-2.109-8.073-6.809-14.004-14.628-17.138-3.439-1.379-7.025-1.348-10.465.31-1.291.622-2.094 1.616-2.256 3.079-.167 1.512 1.13 3.202 2.389 3.094 1.599-.137 2.013.167 1.808 1.789-.149 1.178-.657 2.311-.952 3.29l9.218-.793c-1.815-.202-3.594-.998-5.534-.507-1.087.275-1.571-.039-1.335-1.251.175-.899.142-1.84.326-2.736.08-.389.47-.713.72-1.066l.43.228-.446 3.577c6.355.639 12.312 1.908 16.947 6.636l-.429-1.62-.359.156-2.031-3.332-.9.38.291-.329c-.486-.733-.825-1.657-1.484-2.167-3.573-2.767-7.459-4.663-12.197-4.146-.773.084-1.686-.344-2.406-.759-.674-.389-.608-1.108-.024-1.634.47-.423.863-.562 1.516.002.589.509 1.594.905 2.338.8 2.243-.318 4.143.74 6.007 1.49 3.669 1.477 6.606 4.098 8.936 7.297 1.362 1.869 2.517 3.89 3.638 5.645zM47.549 46.588c-.007-1.614-1.901-3.229-3.249-2.255-1.823 1.318-3.504.807-5.304.724-.226-.011-.455.051-.684.08-3.179.394-6.369.723-9.534 1.214-1.268.197-2.518.667-3.7 1.186-.388.17-.823.965-.723 1.336.14.519.7 1.198 1.186 1.298 1.14.234 2.349.27 3.518.2 2.714-.163 5.444-.75 8.12-.547 1.618.123 2.86-.032 4.043-.984.795-.639 1.35-.416 2.176.065.678.395 1.757.487 2.52.257 1.044-.317 1.699-1.229 1.631-2.574zm-21.374 8.006c.555-.26 1.105-.72 1.343-.594 1 .53 1.284-.21 1.742-.766l-3.307-1.978c-1.769 2.821-4.574 4.313-7.927 5.529.78.536 1.178.98 1.662 1.116 6.029 1.694 11.732 1.361 16.715-2.918.306-.263.347-.834.511-1.261-.492.066-1.126-.043-1.454.224-3.768 3.068-8.056 4.058-12.797 3.351-.667-.1-1.327-.242-1.991-.365 2.372-.169 4.682-.024 6.965-.21 2.35-.191 4.486-1.078 6.053-3.055a19.055 19.055 0 0 0-3.675.848c-.273.09-.409.677-.665.724-.889.161-1.802.186-2.757.267l-.418-.912zm30.568 30.842l.202.102-.366 1.02.225.082 1.62-1.348-.184.981 1.734-1.436.172.228-.873 1.006c.544-.061 1.059-.565 1.274-.46 1.446.711 1.663-.643 2.519-1.523l.433 1.019 4.353-4.968.26.166-1.188 2.129.194.202 4.193-3.083c-4.044-2.636-4.757 1.224-6.526 2.734-.804-1.341-1.711-1.681-2.773-.936-.667.468-1.193 1.137-1.795 1.702-.472.443-.964.865-1.487 1.332-.818-1.691-1.429-1.868-2.829-.877-.744.527-1.521 1.088-2.063 1.8-.701.921-1.336 1.654-2.648 1.588-.564-.029-1.15.412-1.802.669 1.118 1.29 2.296.55 3.05.07 1.05-.669 2.454-1.049 2.968-2.439.069-.186.383-.282.584-.42l.161.145-.879 1.511.177.137c.429-.378.861-.755 1.294-1.133zm11.124-1.095c.921-.253 2.174-.491 3.343-.947 1.403-.547 1.532-1.485.483-2.518.449-.314.991-.551 1.322-.96.389-.482.595-1.112.881-1.678-.703.193-1.415.359-2.1.6-.144.051-.175.39-.284.581-.28.493-.52 1.021-.875 1.456-.51.625-1.107 1.178-1.645 1.74.043.007.23.012.395.075.172.066.323.188.616.366-4.683.683-5.088.864-5.566 2.735l2.451-1.184c-1.037 1.527.643 1.094 1.086 1.892-1.257-.07-2.275.463-3.427-.202-.413-.238-1.235.181-1.851.365-.369.11-.7.346-1.03.516l.629.662h-3.091l.003.271 3.205 1.277-.118.284h-2.446l-1.024-.923v1.15c-.794-1.142-1.763-1.794-3.157-1.679l.207.7c-1.128-1.508-2.316-.084-3.442-.096-.072-.001-.238.539-.208.556.493.275.993.609 1.532.701.244.042.574-.416.64-.468 2.393.35 4.678.869 6.981.965 2.101.088 2.235-.266 1.956-2.55 1.144-.067 2.309.005 3.398-.249.751-.175 1.673-.657 1.994-1.274.213-.411-.488-1.302-.858-2.164zM77.6 60.66c.63-.8 1.218-1.538 1.795-2.283 1.169-1.51.928-2.167-.995-2.457.291-.444.582-.843.824-1.27.248-.439.478-.893.664-1.361.694-1.752.434-2.405-1.33-3.191.148-.638.434-1.305.407-1.959-.018-.451-.409-1.199-.739-1.261-.715-.136-1.881 1.334-1.975 2.1-.082.662-.382 1.296-.466 1.958-.052.41.121.848.193 1.273l.398-.084.675-2.329.188.07.309 3.268 1.346-1.135-2.342 6.758 2.007-1.118.23.356c-.291.396-.557.814-.882 1.18-.208.234-.559.346-.748.589-.411.531-1.163 1.211-1.054 1.652.28 1.138-.318 1.396-1.088 1.789-.888.453-1.167 1.724-.595 2.354l2.627-2.864.374.337c-.909 1.187-1.798 2.392-2.738 3.554-.459.567-.235 1.662.276 1.479.818-.292 1.535-.99 2.15-1.651.202-.217-.046-.852-.087-1.297l-.496-.161c.645-.585 1.337-1.126 1.926-1.763 1.34-1.447 1.146-2.094-.854-2.533zM15.345 22.798c.505-.823.695-1.552 1.057-1.651 1.357-.369 1.586-.537 1.407-1.625l2.289-.361-1.164-2.165-3.588 1.345.298.635c-1.287.415-2.368.736-3.096 2.021-.65 1.146-1.705 2.062-2.586 3.084l.499 1.636-1.338.762c.81.927 1.54 1.803 2.33 2.62.117.121.686.061.76-.073.416-.751.743-1.551 1.103-2.333.333-.722.584-1.5 1.025-2.149.72-1.06.613-1.995-.293-3.044l1.098-.314.199 1.612zm67.456-3.009l-2.708 4.071c.13.622-.004.805-1.177.928l-.456-1.195-.335.107.061 1.124c-.316-.93-1.973-1.18-1.394-2.587l.894.167.123-.248-1.099-1.057-1.734-.525.209-.711c-.859.842-1.434.681-1.84-.55-.317 2.126-1.307.029-1.758.615l2.092 4.338.243-.101-.153-1.801 2.036 2.177c-1.639-.016-2.046.206-1.909 1.21.209 1.523.524 3.032.8 4.582 2.048-.152 8.019-7.449 8.105-10.544zM36.563 67.297l-.532-.279c-1.503 2.638-3.007 5.276-4.506 7.916-.043.075-.034.179-.051.27-.208 1.096.226 1.758 1.314 2.036 1.582.404 2.361-.008 3.478-1.929a1373.9 1373.9 0 0 0 4.413-7.632c.882-1.539 1.736-3.094 2.644-4.716l-1.927-.78-1.31 1.468.528.614 1.061-1.232.311.23-1.992 3.739-1.212-.992-.235.182.855 1.468-1.418-.129.354 1.049-1.454.286.703.797c-.574.42-1.154.711-1.513 1.173-.143.184.201.747.409 1.409l-1.741.189.573.816-2.123 2.438c-.62-1.968.711-3.043 1.358-4.323.681-1.351 1.343-2.712 2.013-4.068zm42.851-23.463l.972-2.012-.62-.076-.561-1.61 1.274.227-1.575-2.137.221-.154 1.049.684-.903-3.604.475-.132 1.246 3.439 1.188-1.057-.985 2.538c1.801.002 1.938-1.214 2.095-2.254.096-.631-.156-1.314-.251-1.974-.584.249-1.165.502-1.752.743-.072.03-.172-.011-.529-.045 0-.588.145-1.251-.042-1.801-.177-.52-.673-1.241-1.088-1.283-.428-.043-1.077.541-1.348 1.012-.203.354.011.968.092 1.457.069.419.211.826.281 1.089-.856.216-1.869.17-2.13.591-.887 1.429.53 2.408.845 3.077-.418.907-1.055 1.704-.874 1.998.809 1.314 1.648 2.698 3.533 3.029l-1.381-1.973.145-.15.623.378zM30.63 83.023l.577-.118c-.235-1.07-.268-2.24-.741-3.191-1.833-3.69-5.04-6.228-7.86-9.135-1.209 2.889-.532 7.121 1.646 8.687l-1.239-6.125.305-.089 2.461 5.667.277-3.014c.675 1.67-.141 3.637 1.121 5.251l.286-2.504.238.021.734 2.682.325-.09.136-2.673.3.013.497 3.659.63-.359.307 1.318zm-11.074-9.41l.538-.082c.105-.946.609-2.1.245-2.803-1.716-3.309-3.669-6.493-5.576-9.787-1.863 1.782-2.46 6.556-.963 7.841l.38-5.003.397.055c-.292 2.758.255 4.674 1.664 5.877l-.7-3.711.224-.07 1.486 3.588.358-1.186h.184l.45 3.123.435-.054v-.868l.274-.045.604 3.125zm7.06 12.789l.134-.255-1.325-1.052c1.125.252 2.059.739 3.034 1.117.982.38 2.006.65 3.011.969l.232-.592c-1.123-.482-2.245-.965-3.368-1.446-.325-.139-.698-.216-.971-.423-2.129-1.619-4.529-2.305-7.169-2.023-1.407.15-2.795.477-4.189.739-.19.036-.362.162-.727.332l3.817 2.643.261-.308-1.361-1.548.193-.161 3.696 1.733.18-.409-1.289-.659.156-.346 2.818 1.182.144-.406-1.577-1.054.199-.332c1.368.765 2.734 1.532 4.101 2.299zm48.235-27.957l.66-.07c-.18-1.725-.413-3.448-.515-5.178-.046-.77.184-1.554.263-2.334.034-.339.006-.684.006-1.104-1.362.479-1.077 1.316-.934 2.21.13.814.027 1.666.027 2.252-.829.059-1.735-.118-1.962.197-.336.465-.309 1.295-.222 1.941.128.95.446 1.874.691 2.841-2.736.318-3.408 3.224-1.677 5.763l1.509-.375c0-.646.032-1.329-.009-2.009-.038-.626-.153-1.247-.234-1.87l.3-.057.842 1.398.387-.09-.523-6.394c.834-.402 1.16.093 1.209 1.078.029.602.119 1.201.182 1.801zM8.289 45.934l-.935 2.114.227.113 1.3-1.77c-.602 1.86-1.136 3.642-.82 5.923.806-2.207 1.675-4.014 2.102-5.92.423-1.888.687-3.905.49-5.811-.191-1.847-.762-3.756-2.27-5.538v5.668l.913-.382-2.137 4.12.318.182 2.264-3.593c.118 2.293-1.804 3.6-2.651 5.721l1.199-.827zm70.114 26.291l-4.202 1.751 1.085-2.133c1.082-.376 2.433.226 3.156-1.091-.773-.708-2.96-.791-3.45-.038-.458.704-.984.898-1.76 1.015-.509.077-1.025.551-1.4.97-.545.608-.947 1.341-1.444 1.994-.733.962-1.497 1.9-2.385 3.023 1.386.164 2.208-.598 2.359-1.433.35-1.932 2.229-2.248 3.213-3.495-.189.72-.604 1.273-.978 1.852-.24.371-.507.76-.607 1.178-.159.67-.19 1.37-.282 2.11-.212-.045-.125-.005-.044-.015.086-.011.214-.048.24-.109.551-1.313 1.731-1.187 2.849-1.33 2.294-.295 3.42-1.564 3.65-4.249zM51.518 65.8l-.331.197c-.012.087-.065.195-.032.258 1.78 3.368 3.554 6.739 5.367 10.089.233.43.606.945 1.024 1.081.814.265 1.818.581 2.525.309.465-.179.936-1.491.732-2.05-.706-1.932-1.707-3.756-2.595-5.621l-.328.142-.716 2.579h.563l1.546 3.524c-1.726-.276-2.432-1.41-3.12-2.613-1.516-2.648-3.086-5.265-4.635-7.895zM40.94.86l-.217-.594c-1.876.657-3.977.975-5.583 2.04-3.736 2.479-7.24 5.311-10.81 8.037-.178.136-.238.784-.102.902.282.243.864.51 1.093.375a10.463 10.463 0 0 0 2.048-1.605c3.277-3.269 6.828-6.143 11.12-7.998.829-.358 1.635-.77 2.451-1.157zM30.61 77.707c.54 1.818 1.122 3.983 1.849 6.098.231.673.604 1.554 1.873 1.3l-.8-.991 1.26-.521-2.4-3.218.457-.383 2.652 2.958.428-1.482.804 2.378 1.665-.659v1.286l1.575-.46.186-.413c-1.302-1.048-2.507-2.258-3.928-3.104-1.912-1.139-3.993-1.997-5.621-2.789zm29.165-7.061l2.463 5.867 1.572-.269c.031-2.341 1.831-2.832 3.522-3.456.514-.19 1.001-.456 1.5-.687l-.161-.266-8.896-1.189zM46.738 1.372c.507.188 1.016.367 1.518.566 3.885 1.54 7.911 2.816 11.143 5.63 1.247 1.086 2.358 2.327 3.614 3.401.333.285.973.21 1.472.301-.006-.467.132-1.003-.053-1.383-.25-.515-.697-.968-1.144-1.348-4.763-4.045-10.518-5.884-16.55-7.167zM11.849 53.461l-.308 3.77.323.059.575-2.906.468.041v3.565c1.443-3.825-.685-6.841-2.166-10.214-.536 1.252-1.011 2.337-1.462 3.432-.245.593-.498 1.19-.662 1.808-.648 2.432-.093 3.918 2.01 4.926l-1.77-3.259 1.501.809-1.131-2.748.268-.109.661.623.528-2.028.334.077v3.186c.309-.387.485-.604.831-1.032zm18.915-27.08c.658 1.227 1.253 2.408 1.933 3.539.125.207.698.377.876.266.275-.174.536-.607.532-.926-.005-.38-.25-.786-.471-1.129-1.912-2.973-3.821-5.95-5.79-8.886-.31-.462-.914-.726-1.576-1.229.109.676.18.995.207 1.318.026.308.006.619.006.929l.217.016.377-.914.325.086-.444 1.995 1.884.73-1.233.489 1.399 2.445.225-.15-.193-1.575.651-.077.49 3.554.585-.481zM5.568 71.782c3.53 3.023 7.649 3.832 11.546 5.236-.529-.842-1.228-1.476-1.813-2.202-.545-.677-.969-1.452-1.447-2.184l-.266.12v1.212l-1.591-1.782-.396.22.839 2.06-.204.117-2.012-2.788-.495.556c-1.341-.181-2.578-.35-4.161-.565zM52.886 90.93c-2.331-.427-3.75-2.091-5.238-3.632-.893-.924-1.65-1.983-2.57-2.877-.88-.854-1.82-1.695-2.873-2.3-.52-.299-1.353-.052-1.833-.052 1.959 1.923 3.844 3.823 5.787 5.662 1.064 1.008 2.177 1.979 3.356 2.847.975.72 2.1 1.135 3.371.352zM21.618 11.904l-1.701.227 1.016 1.378c.393-.348.784-.698 1.187-1.034.025-.021.145.072.298.152-1.001 1.005.48.495.597 1.085l-1.884 1.205c.698.187 1.423.193 1.847.555.336.286.301 1.008.425 1.514l.473-.394.291.177-.598 1.703c2.411-.084 3.357-1.701 2.134-3.683-.578-.936-1.214-1.837-1.82-2.757-1.026-1.555-1.324-1.554-2.265-.128zm48.964 2.919l-.309.405c1.698 1.704 3.85 2.837 6.06 3.798 2.336 1.016 4.714 1.047 6.965-.265-2.24-.443-4.464-.698-6.564-1.35-2.115-.657-4.107-1.709-6.152-2.588zm-1.227-2.292l-.143.333-1.258-.62-.344 1.927h-.937l.301.862-.941-.062-1.168 2.008.635.305-.522.593c1.007.704 1.938 1.172 2.687-.168.784-1.403 1.591-2.798 2.266-4.253.168-.362.029-1.132-.258-1.385-.582-.51-1.361-.793-2.059-1.17l-.138.25 1.879 1.38zM57.394 80.953c-1.527-1.109-2.641-.853-3.693.56-.368.495-.98.966-1.564 1.112-1.559.391-3.015 1.784-3.386 3.583 1.661.293 1.617-3.043 3.589-1.554.223-.366.322-.576.463-.752 2.185-2.729 2.525-2.923 5.148-2.054 1.088.36 1.31-.427 1.563-1.053.155-.382-.03-.902-.062-1.36-.433.145-.922.211-1.283.461-.314.216-.484.64-.775 1.057zM82.85 52.832c.79 1.663.454 2.972-1.317 4.703.65.048 1.391.243 1.476.086.678-1.262 1.357-2.554 1.751-3.92.122-.423-.63-1.099-1.099-1.845.336-.552.73-1.487-.254-2.232-.267-.202-1.271.006-1.294.138-.13.741-.062 1.517-.062 2.412-1.028.136-.516.955-.063 1.663l-1.294.606 1.25 1.107.906-2.718zM30.901 34.178c-.695.653-.461 1.369.221 1.902a6.87 6.87 0 0 0 2.046 1.098c1.152.378 1.155.943.581 1.842-1.028 1.611-2.157 3.062-4.018 3.824-.701.287-1.331.821-1.892 1.35-.285.269-.345.777-.634 1.492 1.779-1.275 3.169-2.358 4.644-3.309 1.86-1.2 2.718-2.982 3.196-4.608a25320.46 25320.46 0 0 1-4.144-3.591zm-1.163 7.002l.477-4.3-.716-.144-2.097 6.826c4.829-2.604 5.531-3.256 5.251-4.647l-1.507.148-1.408 2.117zm51.409 4.699l1.361-.693.157.212-.798.844.193 1.264c2.139-.23 2.667-1.691 1.367-4.06.207-.278.546-.545.611-.868a2.865 2.865 0 0 0-.086-1.424c-.044-.132-.73-.223-.976-.08-.451.263-.794.712-1.182 1.084.809.748-.255.933-.414 1.39-.025.073-.004.161-.007.244l.673-.06c-.286.689-.541 1.295-.899 2.147zm-34.544 44.55l-.384.135c.098.349.106.766.309 1.036.961 1.276 1.774 2.784 3.016 3.698 1.816 1.334 3.941 2.254 5.971 3.279.21.106.764-.195.968-.456.114-.146-.07-.738-.285-.882-.406-.271-.923-.392-1.408-.525-2.833-.782-5.252-2.171-6.957-4.643-.388-.564-.819-1.096-1.23-1.642zm-7.106 3.188c2.039.042 5.615-2.244 6.292-3.915.127-.314-.054-.753-.092-1.134-.323.038-.806-.048-.946.133-1.38 1.777-3.239 2.789-5.297 3.547-.298.109-.473.551-.705.839l.748.53zM18.776 14.384c-4.107 2.23-8.091 4.729-13.323 4.742 2.764 1.73 12.356-1.821 13.323-4.742zM6.282 57.896l.328 1.578c.292-.941.371-1.811.359-2.679-.006-.384-.077-.899-.327-1.127-1.634-1.493-3.326-2.924-4.998-4.375l-.313.175 4.333 6.888.618-.46zm58.824 20.571l.527.426 5.198-6.05c-2.559-.379-2.509 1.695-3.36 2.651-1.562-.419-2.909.13-3.144 1.271-.054.261.096.564.152.848.251-.129.564-.202.739-.398.287-.323.485-.725.721-1.094l.348.223-1.181 2.123zm-49.502-5.132l-.311.359c3.71 4.429 6.352 6.335 8.186 5.751l-7.875-6.11zm65.059-14.404l2.25.295c-.974 1.93-1.881 3.766-3.853 4.798 2.32-.001 4.943-2.732 4.951-4.845.002-.705-.271-.968-1.012-.896-.681.065-1.379-.049-2.112-.086-.722 1.198-.632 1.57.77 2.064l-.994-1.33zM35.69 85.669l-.012.414c1.959.606 3.896 1.302 5.887 1.773.815.192 1.834.043 2.093-1.012l-4.03-.37.036-.365 2.275-.413-.02-.353c-2.085-.197-4.162-.116-6.229.326zm25.579-58.665l.182.399c.311-.21.746-.35.915-.643 1.145-1.987 2.193-4.03 3.358-6.005.679-1.152.284-1.711-.559-2.017-.31.867-.489 1.73-.911 2.451-.449.768-1.129 1.401-1.764 2.161l.694.161-1.915 3.493zm16.788 42.008c.034.025.354.142.484.368.426.741.938.563 1.289.06.755-1.08 1.465-2.202 2.052-3.377.116-.232-.335-1.055-.649-1.139-1.298-.345-2.282.436-2.569 1.978.391-.306.693-.569 1.023-.793.326-.221.68-.401 1.021-.6l.31.391-2.961 3.112zM43.156 54.06c.969-.189 1.926-.311 2.833-.592.251-.078.478-.628.479-.962 0-.194-.466-.544-.734-.557-1.591-.075-3.187-.115-4.777-.059-.338.012-.794.411-.938.743-.081.187.304.787.585.88.814.268 1.682.373 2.552.547zm-7.27-2.16c-2.303-1.523-4.841-.328-7.259-.624 2.336 1.04 4.739 1.38 7.259.624zm-25.06 16.003c-.763-1.868-.763-1.868-1.584-1.63l-1.39-1.523 2.115.725c-.963-1.503-1.893-2.695-3.98-2.316l1.366 1.266c.471 1.72 1.962 2.522 3.473 3.478zM50.93 81.888c-.062-.039-.13-.104-.21-.126-1.693-.477-2.445.873-3.434 1.768-1.195 1.083-1.183 1.231.226 2.119l3.418-3.761zm12.375-63.983l-.364-.315c-.289.23-.686.401-.85.7a100.738 100.738 0 0 0-2.585 5.007c-.12.252.15.692.296 1.266l3.503-6.658zM35.802 97.896c1.771.646 6.073-1.505 7.207-3.259l-7.207 3.259zm30.729-87.321c-1.236-.035-3.777 4.075-3.666 5.812.087-.016.224-.002.254-.052 1.138-1.906 2.266-3.818 3.412-5.76zM30.698 91.496c1.42.927 4.797.793 5.7-.404l-5.7.404zM19.304 79.883l1.437-.089c-1.012-.942-2.674-.766-3.101.308-.127.321.007.987.252 1.15.272.182.92.107 1.192-.115.227-.185.147-.745.22-1.254zM4.297 47.448l1.536-.157-.933-1.615.342-.2.736.634.574-1.66c-2.202.126-2.38.377-2.255 2.998zm35.19 4.518l-.019-.592c-.403-.24-.906-.759-1.187-.659-.496.177-.947.683-1.216 1.163-.075.134.618.99.85.945.558-.106 1.052-.549 1.572-.857zm23.799 28.02l-1.982-.903 2.323-1.352-.299-.498-2.921 1.725 1.432 1.744 1.447-.716zM11.475 65.877l.642-.17-1.146-4.232c-1.444 1.897.324 2.939.504 4.402zm42.487-4.964l.518.07c0-.762.297-1.76-.074-2.227-.481-.605-1.495-.788-2.279-1.152l-.237.389 2.379 1.366-1.351.098 1.044 1.456zM28.709 85.069c.513-.672 1.095-1.127 1.02-1.406-.12-.447-.675-.777-1.046-1.157-.359.389-.9.732-1.011 1.182-.07.28.514.72 1.037 1.381zM7.671 60.782l.5-.048c-.275-1.139 1.701-2.514-.801-3.708l.301 3.756zm16.212 27.714c-.564-1.143-3.519-2.251-4.391-1.766l4.391 1.766zm25.941-36.321l-.038-.532c-.441-.187-.906-.557-1.316-.505-.345.044-.628.58-.939.899.346.282.689.782 1.039.787.415.007.836-.414 1.254-.649zM9.3 58.955l-.523.088.741 3.343c.835-2.103.807-2.299-.218-3.431zm2.758 19.277l2.141-1.109-.093-.296-3.179.365.03.329 1.101.711zm2.956 1.618c1.189.691 2.348.156 3.586-1.543l-3.586 1.543zm-8.9-38.992c1.195-.045 1.195-.045 1.141-2.667l-1.141 2.667zm52.734 24.727c.265-1.388-.387-2.371-2.134-3.086l2.134 3.086zM16.494 77.994l-.04-.312c-1.052.221-2.109.421-3.149.689-.126.032-.158.432-.234.661.248.039.534.178.737.1.908-.346 1.792-.753 2.686-1.138zM6.244 48.807l.148-.357-1.372-.459v2.352c.639-.325 1.016-.518 1.465-.745l-1.377-.917.112-.2 1.024.326zm.013-7.142l-.737 1.793c1.137-.003 1.921-.244 1.623-1.688a160.15 160.15 0 0 0-.886-.105zm-.993 21.093l.269-.022.227-.717 1.795.638.135-.368c-.506-.268-.989-.607-1.527-.778-.336-.107-.753.04-1.134.073l.235 1.174zm4.516 5.249c-.529-.232-.882-.525-1.075-.442a1.858 1.858 0 0 0-.871.825c-.057.114.578.757.647.718.397-.226.721-.583 1.299-1.101z" fill="#1a1a1a"/></svg>