<svg xmlns="http://www.w3.org/2000/svg" width="34" height="34"><circle cx="17" cy="17" r="17" fill="#ffdb4b"/><path d="M11.5 17.4c-.1-.2-.3-.3-.4-.4-.2-.3-.2-.7.1-.8.6-.3.6-.8.8-1.3.3-1 .6-2 1.2-2.9.1-.1.1-.3 0-.4-.7-1.1-1.3-2.1-2-3.2-.4-.6-.6-.6-1.2-.2-1.1.7-1.8 1.8-2.1 3-1.5-.8-2.2-2.2-2.6-3.8.6-.1 1.2-.1 1.7-.3.8-.3 1.5-.7 2.3-1.1.1 0 .2-.3.1-.4-.1-.5 0-.6.5-.8.3-.1.6-.3 1 0 .1.1.4 0 .5-.1.6-.5 1.2-1 1.9-1.5 1-.8 2.1-1.3 3.3-1.3h.3s.1 0 .2.1c-.2.1-.3.2-.5.3-.9.5-1.8 1-2.5 1.7s-1.3 1.4-1.8 2.3c-.1.2-.1.4 0 .6.6.9 1.2 1.8 1.8 2.8.2.3.4.7.5 1.1.6-.3 1-1.1.8-1.6 0-.1-.2-.2-.3-.2-.7-.1-.9-.2-1-.7-.1-.5 0-.9.5-1.2 1-.9 2.2-.9 3.5-.6 1.3.3 2.3 1 3.2 1.9.2.2.3.3.5.6.3-.6.7-1.1.8-1.6.1-.4-.1-1-.3-1.4-.5-1.2-1.4-2-2.6-2.5-.6-.3-1.3-.6-1.9-.9-.1-.1-.3-.2-.4-.3 0 0 0-.1.1-.1h.4c1.6.4 3.2.8 4.6 1.8.4.2.7.5 1 .8.2.2.4.2.6.1.5-.3.9.1 1.3.4.1.1.1.5 0 .7 0 .2-.1.3.1.5 1.2.7 2.5 1.1 3.9 1.1 0 1.4-2.1 4-3.4 4.3 0-.2.1-.4.1-.6 0-1.2-.4-2.3-1.3-3.1-.3-.3-.5-.2-.7.1-.5.9-1 1.8-1.4 2.7-.1.1-.1.3 0 .4.2 1.3.5 2.6.7 3.9.1.4.1.9.1 1.3 0 .3 0 .6.4.7.3.1.3.5.1.7-.5.5-.4 1.1-.2 1.7.2.7.6 1.3 1.2 1.8-.1-.7-.2-1.4.7-1.6-.1-.2-.1-.4-.2-.5-.2-.5-.2-.7.3-.9.3-.2.4-.3.3-.6 0-.1 0-.3.1-.4.3-.4.7-.7 1.1-1 .3-.2.3-.3.1-.5l-.2-.2c-.5-.5-.5-.7-.1-1.2-.4-.8-.3-1 .3-1.3 0-.7.1-1 .5-1.1.4-.1.7.1.9.7.6 0 .9.5.6 1.1-.1.3-.2.4.2.6.3.1.3.4.1.7-.1.2-.1.4-.1.6 0 .4-.2.8-.3 1.1.1.2.1.5.2.8 0 .1 0 .2.1.2.5.3.3.7.2 1.2l-.3.6c.3.5.3.9-.3 1.5-.2-.3-.3-.1-.2.3.1.3-.1.7-.3 1-.1.2-.4.4-.5.6-.1.1-.2.3-.2.4.2.6-.4.9-.4 1.4-.6.2-.8.7-1.1 1.2 0 .1-.1.1-.1.2-.2.8-.3 1-1.1 1.1-.1 0-.1 0-.2.1.1.9-.2 1.2-1 1.2-.3 0-.5.1-.5.4 0 .3-.2.5-.6.5-.7.1-1.2-.1-1.8-.3-.2 0-.5 0-.6.1-.3.5-.8.6-1.3.5 0 0 0 .1-.1.1.3.2.5.4.8.6.4.2.9.3 1.3.5.2.1.4.4.4.4-.1.2-.3.4-.5.5-.1.1-.4-.1-.5-.2-.3-.2-.5-.4-.8-.5-1-.5-1.2-.6-1.8-1.4-.2.2-.4.4-.5.6-.3.4-.7.7-1.1.9-.3.1-.7.2-.8.6 0 .1-.3.1-.3.1-.2-.1-.5-.2-.7-.4.5-.9 1.6-.8 2.2-1.4-.5.3-1 .1-1.5-.1-.1-.1-.3-.1-.5-.1-1.1-.1-2.1-.3-3.2-.4-.1 0-.2-.1-.4-.1.5-.3 1-.5 1.5-.8v-.1c-2 .6-3.3-.4-4.5-1.6L8 27c.4 0 .8-.1 1.3-.1v-.1c-.2-.1-.3-.2-.5-.3-1.7-.7-3.1-1.6-4-3.4 1 .5 2.1.3 3.1.4-.4-.2-.7-.5-1.2-.3-.2.1-.5-.1-.6-.2-.1-.2 0-.5 0-.7-.6-.9-1.2-1.7-1.7-2.7-.5-1-.4-2.1-.4-3.3.5.7.9 1.5 1.7 2-.2-.4-.3-.8-.5-1.1-.3-.6-.3-1.3-.1-2l.6-1.5.6-2.1c.5 1.1 1.3 2.1 1.1 3.5-.1.6 0 1.2.2 1.8.5 1 .7 2.1.3 3.2v.4c.1-.2.3-.4.4-.5.7 1 1.3 2.1 2.1 3.2v-.6c.7.7 1.5 1.4 2.2 2.1 0-.1.1-.2.1-.3.1.2.2.3.3.4.2-.3.3-.7.5-1l2.7-4.5c0-.2.1-.4.1-.5-.2 0-.4 0-.5.1-1.1.6-2.2 1-3.4 1.2-1 .2-2 .1-2.9-.3-.2-.1-.3-.1-.4-.3 0-.2-.1-.4-.1-.5 0-.1.2-.2.3-.2 1-.2 1.6-.7 2.2-1.4zm3.8 11.2c.1.1.3.1.4.2.4.3.6.3.9-.1-.3 0-.6-.1-.9-.1h-.4c-.1 0-.1-.1-.2-.1-1.1-.4-2 0-3 1 .5-.1.9-.2 1.4-.3v-.1c-.2 0-.4-.1-.6-.1v-.1c.6.1 1.2.1 1.9.2V29c-.3-.1-.6-.2-1-.3.3-.2.5-.1.8 0 .2.1.4.3.6.4.1.1.3 0 .5.1v-.1c-.2-.1-.3-.2-.5-.3.1 0 .1-.1.1-.2zm7.6-13.9s.1 0 .1-.1c-.4-.7-.7-1.3-1.1-2-.9-1.3-2.2-2.1-3.7-2.4-1.4-.2-2.7.1-3.9.8-.8.4-.8.9-.1 1.4 0-.2.1-.4.1-.7l.5.5c-.2 0-.3 0-.4.1.2.2.3.3.4.5.1.1.1.2.1.3-.5.3-.2.6 0 .9l-.9.6v.1c.2-.1.4-.2.5-.2.3.2.4.4.7.5.1.1.3.1.4.1.3.1.7 0 1.1 0 .7-.7 1.4-.4 1.8.8h.3c-.1.1-.2.1-.3.2l.2.2c.1 0 .2-.1.3-.2.2.6-.4.5-.6.6 1.3.3 2.5.7 3.7-.2v-.2c-.1-.3.3-.5.1-.8 0 0 .1-.1.2-.1 0 0 .1.1.2.1.1.1.2.3.3.4.3.4-.1.6-.3.9.2-.1.5-.1.5-.3.1-.4 0-.8 0-1.2-.2.1-.3.1-.4.1l-.1-.1.3-.3c-.1-.1-.2-.1-.3-.2.2.1.2 0 .3-.1zm-8.5 10.9c.4.3.8.5 1.2.8.1.1.3.2.4.2.5-.1.9 0 1.3.3.3.2.7.2 1-.1.4-.3.8-.4 1.3-.3.1 0 .3 0 .4-.1.3-.1.5-.3.7-.4.2-.1.5-.1.6-.1-.3-.3-.5-.6-.7-1-.9-1.5-1.7-3.1-2.6-4.7 0-.1-.1-.1-.2-.3-.2.4-.4.7-.6 1-.6 1.2-1.2 2.3-1.9 3.5-.1.5-.3 1-.9 1.2zm4.3-7.5h-.2c0 .1-.1.3-.1.4.1 1.1.5 2.1 1.3 2.9 1.3 1.3 3 1.8 4.9 1.8.4 0 .9-.1 1.3-.2.6-.2.6-.4.1-.7-1-.6-1.8-1.4-2.3-2.5-.3-.6-.5-1.3-.1-2 .1-.2.3-.4.1-.5-.1-.1-.4-.1-.6-.1-.7.1-1.3.3-2 .4-.6.1-1.1 0-1.7.1-.1 0-.2.1-.3.2.1.1.2.1.3.2h.2c1.1.1 2.2-.1 3.2-.3.1 0 .2 0 .4.1-.1.1-.1.2-.2.3-.1.1-.3.2-.5.3.1 0 .2.1.4.2v.6h-.3c0 .2 0 .5.1.7h-.1c-.1-.3-.2-.5-.4-.8l-.2.2v-.3s-.1 0-.1-.1c0 .1-.1.2-.1.3-.1-.2-.2-.4-.3-.4-.3-.1-.6 0-.8.2-.1.2-.2.5-.2.7.1.4.3.7.6 1 .7.7 1.3 1.5 2.5 1.4v.1c.1.1.3.1.5.2v.3c.4 0 .9-.1 1.3-.1v.1c-.1 0-.2.1-.3.1-1.2.2-2.3 0-3.4-.5-1.5-.6-2.4-1.8-2.9-3.3.1-.6 0-.8-.1-1zm3.9-6.1c-.1-1.1-2.4-4-3.2-3.9 0-.3-.1-.4-.4-.3-.4-.1-.6-.8-1.2-.4-.3-.4-.8-.2-1.2-.3-.5 0-.9.1-1.5.2.2-.1.3-.3.4-.3.7-.3 1.4-.4 2.2-.2 1.6.4 2.8 1.3 3.8 2.7.6.8 1.2 1.7 1.4 2.8V12c-.6-2.4-2.1-4.2-4.4-5.2-1-.4-2.1-.4-3.2.1-.4.2-.6.5-.7.9-.1.5.3 1 .7.9.5 0 .6.1.5.5 0 .4-.2.7-.3 1 .9-.1 1.9-.2 2.8-.2-.6-.1-1.1-.3-1.7-.2-.3.1-.5 0-.4-.4.1-.3 0-.6.1-.8 0-.1.1-.2.2-.3 0 0 .1 0 .1.1 0 .4-.1.7-.1 1.1 1.9.2 3.7.6 5.1 2 0-.2-.1-.3-.1-.5-.1 0-.1.1-.1 0-.2-.3-.4-.7-.6-1-.1 0-.2.1-.3.1l.1-.1c-.1-.2-.3-.5-.5-.7-1.1-.8-2.3-1.4-3.7-1.3-.2 0-.5-.1-.7-.2-.2-.1-.2-.3 0-.5.1-.1.3-.2.5 0s.5.3.7.2c.7-.1 1.3.2 1.8.5 1.1.4 2 1.2 2.7 2.2.5.6.9 1.2 1.2 1.8zm-4.2 4c0-.5-.6-1-1-.7-.6.4-1.1.2-1.6.2h-.2c-1 .1-1.9.2-2.9.4-.4.1-.8.2-1.1.4-.1.1-.2.3-.2.4 0 .2.2.4.4.4.3.1.7.1 1.1.1.8 0 1.7-.2 2.5-.2.5 0 .9 0 1.2-.3.2-.2.4-.1.7 0 .2.1.5.1.8.1.1-.2.3-.4.3-.8zm-6.5 2.4c.2-.1.3-.2.4-.2.3.2.4-.1.5-.2-.3-.2-.6-.4-1-.6-.5.9-1.4 1.3-2.4 1.7.2.2.4.3.5.3 1.8.5 3.6.4 5.1-.9.1-.1.1-.3.2-.4-.1 0-.3 0-.4.1-1.1.9-2.4 1.2-3.9 1-.2 0-.4-.1-.6-.1.7-.1 1.4 0 2.1-.1.7-.1 1.4-.3 1.8-.9-.4 0-.8.1-1.1.3-.1 0-.1.2-.2.2-.3 0-.5.1-.8.1-.1-.1-.2-.2-.2-.3zm9.3 9.4v.3h.1c.2-.1.3-.3.5-.4 0 .1 0 .2-.1.3.2-.2.4-.3.5-.4l.1.1-.3.3c.2 0 .3-.2.4-.1.4.2.5-.2.8-.5 0 .1.1.2.1.3.5-.5.9-1 1.3-1.5 0 0 .1 0 .1.1-.1.2-.2.4-.4.6l.1.1c.4-.3.8-.6 1.3-.9-1.2-.8-1.4.4-2 .8-.2-.4-.5-.5-.8-.3-.2.1-.4.3-.5.5-.1.1-.3.3-.5.4-.2-.5-.4-.6-.9-.3-.2.2-.5.3-.6.5-.2.3-.4.5-.8.5-.2 0-.3.1-.5.2.3.4.7.2.9 0 .3-.2.7-.3.9-.7 0-.1.1-.1.2-.1-.1.2-.2.3-.3.5h.1c0-.1.1-.2.3-.3zm3.3-.4c.3-.1.7-.1 1-.3.4-.2.5-.5.1-.8.1-.1.3-.2.4-.3.1-.1.2-.3.3-.5-.2.1-.4.1-.6.2 0 0-.1.1-.1.2-.1.1-.2.3-.3.4-.2.2-.3.4-.5.5h.1c.1 0 .1.1.2.1-1.4.2-1.5.3-1.7.8.3-.1.5-.2.7-.4-.3.5.2.3.3.6-.4 0-.7.1-1-.1-.1-.1-.4.1-.6.1-.1 0-.2.1-.3.2l.2.2h-.9v.1c.3.1.6.3 1 .4v.1h-.7l-.3-.3v.3c-.2-.3-.5-.5-1-.5 0 .1 0 .1.1.2-.3-.5-.7 0-1 0l-.1.2c.1.1.3.2.5.2.1 0 .2-.1.2-.1.7.1 1.4.3 2.1.3.6 0 .7-.1.6-.8.3 0 .7 0 1-.1.2-.1.5-.2.6-.4.1.1-.1-.2-.3-.5zm3-7.2c.2-.2.4-.5.5-.7.4-.5.3-.7-.3-.7.1-.1.2-.3.2-.4.1-.1.1-.3.2-.4.2-.5.1-.7-.4-1 0-.2.1-.4.1-.6 0-.1-.1-.4-.2-.4-.2 0-.6.4-.6.6 0 .2-.1.4-.1.6 0 .1 0 .3.1.4h.1c.1-.2.1-.5.2-.7h.1c0 .3.1.6.1 1 .1-.1.2-.2.4-.3-.3.7-.5 1.3-.7 2.1.3-.2.5-.3.6-.3 0 0 0 .1.1.1-.1.1-.2.2-.3.4-.1.1-.2.1-.2.2-.1.2-.4.4-.3.5.1.3-.1.4-.3.5-.3.1-.4.5-.2.7.3-.3.5-.6.8-.9l.1.1c-.3.4-.5.7-.8 1.1-.1.2-.1.5.1.4.2-.1.5-.3.7-.5.1-.1 0-.3 0-.4h-.2c.2-.2.4-.3.6-.5.3-.5.2-.7-.4-.9zM8.6 8.7c.2-.2.2-.5.3-.5.4-.1.5-.2.4-.5.2 0 .5-.1.7-.1L9.7 7c-.4.1-.7.3-1.1.4 0 .1.1.2.1.2-.4.1-.7.2-.9.6-.2.3-.6.6-.8.9 0 .2.1.4.1.5-.1.1-.2.2-.4.3.2.3.5.5.7.8h.2c.1-.2.2-.5.3-.7.1-.2.2-.5.3-.7.3-.3.3-.6 0-.9.1 0 .2-.1.3-.1.1.1.1.2.1.4zm20.5-.9c-.3.4-.5.8-.8 1.2 0 .2 0 .2-.4.3 0-.1-.1-.2-.1-.4h-.1v.3c-.1-.3-.6-.4-.4-.8.1 0 .2 0 .3.1v-.1c-.1-.1-.3-.2-.3-.3-.2-.1-.4-.1-.5-.2 0-.1 0-.1.1-.2-.3.3-.4.2-.6-.2-.1.6-.4 0-.5.2.2.5.4.9.6 1.3h.1v-.5c.2.2.4.5.6.7-.5 0-.6.1-.6.4.1.5.2.9.2 1.4.5 0 2.4-2.2 2.4-3.2zM15 22.2c-.1 0-.1-.1-.2-.1-.5.8-.9 1.6-1.4 2.4v.1c-.1.3.1.5.4.6.5.1.7 0 1.1-.6.4-.8.9-1.5 1.3-2.3.3-.5.5-.9.8-1.4-.2-.1-.4-.2-.6-.2-.1.1-.2.3-.4.4l.2.2c.1-.1.2-.3.3-.4 0 0 .1 0 .1.1-.2.4-.4.7-.6 1.1-.1-.1-.3-.2-.4-.3l-.1.1c.1.1.1.3.3.4h-.4c0 .1.1.2.1.3-.1 0-.3.1-.4.1l.2.2c-.2.1-.4.2-.5.4 0 .1.1.2.1.4-.1 0-.3 0-.5.1.1.1.1.2.2.2-.2.2-.4.4-.6.7-.2-.6.2-.9.4-1.3.2-.3.4-.7.6-1.2zm13-7.1l.3-.6h-.2c0-.2-.1-.3-.1-.5.1 0 .2 0 .4.1-.2-.3-.3-.5-.5-.6h.1c.1.1.2.1.3.2-.1-.4-.2-.7-.3-1.1h.1c.1.3.3.7.4 1 .1-.1.2-.2.4-.3-.1.3-.2.5-.3.8.5 0 .6-.4.6-.7 0-.2 0-.4-.1-.6-.2.1-.4.2-.5.2h-.2v-.5c-.1-.2-.2-.4-.3-.4-.1 0-.3.2-.4.3-.1.1 0 .3 0 .4 0 .1.1.3.1.3-.3.1-.6.1-.6.2-.3.4.2.7.3.9-.1.3-.3.5-.3.6.2.4.5.8 1.1.9-.1-.2-.3-.4-.4-.6h.1zM13.2 27h.2c-.1-.3-.1-.7-.2-1-.6-1.1-1.5-1.9-2.4-2.8-.4.9-.2 2.2.5 2.6-.1-.7-.3-1.3-.4-1.9h.1c.2.5.5 1.1.7 1.7 0-.4.1-.6.1-.9.2.5 0 1.1.3 1.6 0-.3.1-.5.1-.8h.1c.1.3.1.5.2.8h.1v-.8h.1c0 .4.1.7.2 1.1.1 0 .1-.1.2-.1.1.3.1.4.1.5zm-3.3-2.8h.2c0-.3.2-.6.1-.9-.5-1-1.1-2-1.7-3-.6.5-.7 2-.3 2.4 0-.5.1-1 .1-1.5h.1c-.1.8.1 1.4.5 1.8-.1-.4-.1-.7-.2-1.1h.1c.1.3.3.7.5 1.1.1-.2.1-.3.1-.4h.1c0 .3.1.6.1.9h.1v-.3h.1c0 .3 0 .6.1 1zM12 28s.1 0 0 0c-.1-.2-.2-.3-.4-.4l.9.3.9.3c0-.1 0-.1.1-.2-.3-.1-.7-.3-1-.4-.1 0-.2-.1-.3-.1-.6-.5-1.4-.7-2.2-.6-.4 0-.8.1-1.3.2-.1 0-.1 0-.2.1.5.3.9.6 1.2.8l.1-.1c-.1-.2-.3-.3-.4-.5h.1c.4.2.7.4 1.1.5 0 0 0-.1.1-.1-.1-.1-.3-.1-.4-.2v-.1c.3.1.6.2.9.4v-.1c-.2-.1-.3-.2-.5-.3 0 0 0-.1.1-.1l1.2.6zm14.7-8.4h.2c-.1-.5-.1-1-.2-1.6 0-.2.1-.5.1-.7V17c-.4.1-.3.4-.3.7v.7c-.3 0-.5 0-.6.1-.1.1-.1.4-.1.6 0 .3.1.6.2.9-.8.1-1 1-.5 1.7.2 0 .3-.1.5-.1V21c0-.2 0-.4-.1-.6h.1c.1.1.2.3.3.4h.1c-.1-.6-.1-1.3-.2-1.9.3-.1.4 0 .4.3 0 0 0 .2.1.4zM6.5 15.8c-.1.3-.2.5-.3.6h.1c.1-.2.3-.4.4-.5-.2.6-.3 1.1-.2 1.8.1-.7.4-1.2.5-1.8.1-.6.2-1.2.1-1.8 0-.5-.1-1.1-.6-1.6v1.7c.1 0 .1-.1.3-.1-.2.5-.4.9-.6 1.3 0 0 .1 0 .1.1.2-.4.5-.7.7-1.1 0 .7-.5 1.1-.8 1.7 0-.2.1-.2.3-.3zm21.2 7.9c-.4.2-.8.3-1.3.5.2-.3.2-.5.3-.6.3-.1.7.1 1-.3-.2-.2-.9-.2-1 0-.1.2-.3.3-.5.3s-.3.2-.4.3c-.2.2-.3.4-.4.6-.2.3-.5.6-.7.9.4 0 .7-.2.7-.4.1-.6.7-.7 1-1.1l-.3.6c-.1.1-.2.2-.2.4s-.1.4-.1.6c-.1 0 0 0 0 0h.1c.2-.4.5-.4.9-.4.5-.2.9-.5.9-1.4zm-8.1-1.9s-.1 0-.1.1v.1c.5 1 1.1 2 1.6 3.1.1.1.2.3.3.3.2.1.6.2.8.1.1-.1.3-.5.2-.6-.2-.6-.5-1.1-.8-1.7h-.1c-.1.3-.1.5-.2.8h.2c.2.4.3.7.5 1.1-.5-.1-.7-.4-.9-.8-.6-.9-1-1.7-1.5-2.5zM16.4 2.1c0-.1 0-.1-.1-.2-.6.2-1.2.3-1.7.6l-3.3 2.4c-.1 0-.1.2 0 .3.1.1.3.2.3.1.2-.1.4-.3.6-.5 1-1 2.1-1.9 3.4-2.4.3-.1.5-.2.8-.3zm-3.2 23.3c.2.6.3 1.2.6 1.9.1.2.2.5.6.4-.1-.1-.2-.2-.2-.3.1-.1.2-.1.4-.2-.3-.3-.5-.7-.7-1l.1-.1c.3.3.5.6.8.9 0-.1.1-.2.1-.4.1.3.2.5.2.7.2-.1.3-.1.5-.2v.4c.2-.1.3-.1.5-.1 0 0 0-.1.1-.1-.4-.3-.8-.7-1.2-.9-.6-.5-1.3-.8-1.8-1zm8.9-2.1c.2.6.5 1.2.7 1.8.1 0 .3 0 .5-.1 0-.7.6-.9 1.1-1 .2-.1.3-.1.5-.2v-.1c-1-.2-1.9-.3-2.8-.4zm-4-21.1c.2.1.3.1.5.2 1.2.5 2.4.9 3.4 1.7.4.3.7.7 1.1 1 .1.1.3.1.4.1v-.4c-.1-.2-.2-.3-.3-.4-1.5-1.2-3.2-1.8-5.1-2.2zM7.5 18.1c0 .4-.1.8-.1 1.1h.1c.1-.3.1-.6.2-.9h.1v1.1c.4-1.2-.2-2.1-.7-3.1-.2.4-.3.7-.4 1-.1.2-.2.4-.2.5-.2.7 0 1.2.6 1.5-.2-.3-.3-.6-.5-1 .2.1.3.2.5.2-.1-.3-.2-.6-.3-.8h.1c0 .2.1.2.1.3.1-.2.1-.4.2-.6h.1v1c.1-.2.1-.2.2-.3zm5.8-8.3c.2.4.4.7.6 1.1 0 .1.2.1.3.1.1-.1.2-.2.2-.3 0-.1-.1-.2-.1-.3l-1.8-2.7c-.1-.1-.3-.2-.5-.4V8h.1c0-.1.1-.2.1-.3h.1c0 .2-.1.4-.1.6.2.1.3.1.6.2-.2.1-.3.1-.4.1.1.3.3.5.4.7h.1c0-.2 0-.3-.1-.5h.2c0 .4.1.7.1 1.1.1 0 .1 0 .2-.1zM5.6 23.6c1.1.9 2.3 1.2 3.5 1.6-.2-.3-.4-.4-.6-.7-.2-.2-.3-.4-.4-.7H8v.4c-.2-.2-.3-.4-.5-.5 0 0-.1 0-.1.1l.3.6h-.1c-.2-.3-.4-.5-.6-.8-.1.1-.1.2-.2.2-.3-.1-.7-.1-1.2-.2zM20 29.4c-.7-.1-1.1-.6-1.6-1.1-.3-.3-.5-.6-.8-.9-.3-.3-.6-.5-.9-.7-.2-.1-.4 0-.6 0 .6.6 1.2 1.2 1.8 1.7.3.3.7.6 1 .9.4.2.7.4 1.1.1zm-9.5-24c-.2 0-.4.1-.5.1.1.2.2.3.3.4.1-.1.2-.2.4-.3h.1c-.3.4.1.2.1.4-.2.1-.4.3-.6.4.2.1.4.1.6.2.1 0 .1.2.2.4l.1-.1s.1 0 .1.1c-.1.2-.1.3-.2.5.7 0 1-.5.6-1.1-.2-.3-.4-.6-.6-.8-.2-.6-.3-.6-.6-.2zm14.9.9l-.1.1c.5.5 1.2.9 1.8 1.2.7.3 1.4.3 2.1-.1-.7-.1-1.4-.2-2-.4-.6-.2-1.2-.5-1.8-.8zm-.4-.7v.1c-.1-.1-.2-.1-.4-.2 0 .2-.1.4-.1.6h-.3c0 .1.1.2.1.3H24c-.1.2-.2.4-.4.6 0 0 .1.1.2.1l-.2.2c.3.2.6.4.8-.1.2-.4.5-.8.7-1.3.1-.1 0-.3-.1-.4-.2-.2-.4-.2-.6-.4v.1c.2.2.4.3.6.4zm-3.6 20.8c-.5-.3-.8-.3-1.1.2-.1.2-.3.3-.5.3-.5.1-.9.5-1 1.1.5.1.5-.9 1.1-.5.1-.1.1-.2.1-.2.7-.8.8-.9 1.6-.6.3.1.4-.1.5-.3V26c-.1 0-.3.1-.4.1-.2 0-.2.2-.3.3zm7.7-8.5c.2.5.1.9-.4 1.4.2 0 .4.1.4 0 .2-.4.4-.8.5-1.2 0-.1-.2-.3-.3-.6.1-.2.2-.5-.1-.7-.1-.1-.4 0-.4 0v.7c-.3 0-.2.3 0 .5-.1.1-.2.1-.4.2.2.1.3.2.4.3.1-.1.2-.4.3-.6zm-15.8-5.7c-.2.2-.1.4.1.6.2.1.4.3.6.3.3.1.4.3.2.6-.3.5-.7.9-1.2 1.2-.2.1-.4.2-.6.4-.1.1-.1.2-.2.5.5-.4 1-.7 1.4-1 .6-.4.8-.9 1-1.4-.5-.5-.8-.8-1.3-1.2zm-.3 2.1c.1-.5.1-.9.1-1.3h-.2c-.2.7-.4 1.3-.6 2.1 1.5-.8 1.7-1 1.6-1.4h-.5c-.1.2-.3.4-.4.6zm15.6 1.5c.2-.1.3-.2.4-.2v.1c-.1.1-.2.2-.2.3 0 .2 0 .3.1.4.6-.1.8-.5.4-1.2.1-.1.2-.2.2-.3v-.4s-.2-.1-.3 0c-.1.1-.2.2-.4.3.2.2-.1.3-.1.4v.1h.2c-.1 0-.2.2-.3.5zM18.1 29.3H18c0 .1 0 .2.1.3.3.4.5.8.9 1.1.6.4 1.2.7 1.8 1 .1 0 .2-.1.3-.1 0 0 0-.2-.1-.3-.1-.1-.3-.1-.4-.2-.9-.2-1.6-.7-2.1-1.4-.2-.1-.3-.3-.4-.4zm-2.2.9c.6 0 1.7-.7 1.9-1.2v-.3h-.3c-.4.5-1 .8-1.6 1.1-.1 0-.1.2-.2.3.1 0 .2.1.2.1zm-6.2-24c-1.2.7-2.5 1.4-4 1.4.7.6 3.7-.5 4-1.4zM5.9 19.4c0 .2.1.3.1.5.1-.3.1-.5.1-.8 0-.1 0-.3-.1-.3-.5-.5-1-.9-1.5-1.3 0 0-.1 0-.1.1.4.7.9 1.4 1.3 2.1 0-.2.1-.2.2-.3zm17.8 6.2c.1 0 .1.1.2.1.5-.6 1-1.2 1.6-1.8-.8-.1-.8.5-1 .8-.5-.1-.9 0-1 .4v.3c.1 0 .2-.1.2-.1.1-.1.1-.2.2-.3 0 0 .1 0 .1.1-.1.1-.2.3-.3.5zm-15-1.5l-.1.1c1.1 1.3 1.9 1.9 2.5 1.7l-2.4-1.8zm19.7-4.4c.3 0 .5.1.7.1-.3.6-.6 1.1-1.2 1.5.7 0 1.5-.8 1.5-1.5 0-.2-.1-.3-.3-.3h-.6c-.2.4-.2.5.2.6-.1-.1-.2-.2-.3-.4zm-13.6 8.1v.1c.6.2 1.2.4 1.8.5.2.1.6 0 .6-.3-.4 0-.8-.1-1.2-.1v-.1c.2 0 .5-.1.7-.1v-.1c-.7 0-1.3 0-1.9.1zM22.5 10s0 .1.1.1c.1-.1.2-.1.3-.2.3-.6.7-1.2 1-1.8.2-.3.1-.5-.2-.6-.1.3-.1.5-.3.7-.1.2-.3.4-.5.7h.2c-.2.4-.4.8-.6 1.1zm5.1 12.8s.1 0 .1.1c.1.2.3.2.4 0 .2-.3.4-.7.6-1 0-.1-.1-.3-.2-.3-.4-.1-.7.1-.8.6.1-.1.2-.2.3-.2.1-.1.2-.1.3-.2l.1.1c-.2.2-.5.6-.8.9zM17 18.2c.3-.1.6-.1.9-.2.1 0 .1-.2.1-.3 0-.1-.1-.2-.2-.2h-1.4c-.1 0-.2.1-.3.2 0 .1.1.2.2.3.2.1.5.2.7.2zm-2.2-.6c-.7-.5-1.5-.1-2.2-.2.7.3 1.5.4 2.2.2zm-7.6 4.8c-.2-.5-.2-.5-.4-.5-.1-.2-.2-.3-.4-.5.3.1.4.1.6.2-.3-.5-.6-.8-1.2-.7l.4.4c.1.6.6.8 1 1.1zm12.2 4.3s0-.1 0 0c-.6-.2-.8.2-1.1.5-.4.3-.4.4.1.6.3-.4.6-.7 1-1.1zm3.8-19.4l-.1-.1c-.1.1-.2.1-.3.2-.3.5-.5 1-.8 1.5 0 .1 0 .2.1.4.4-.8.7-1.4 1.1-2zm-8.4 24.2c.5.2 1.8-.5 2.2-1-.7.4-1.4.7-2.2 1zM24.1 5C23.8 5 23 6.3 23 6.8h.1c.4-.6.7-1.2 1-1.8zM13.3 29.6c.4.3 1.5.2 1.7-.1-.6 0-1.1 0-1.7.1zm-3.5-3.5h.4c-.3-.3-.8-.2-.9.1 0 .1 0 .3.1.3.1.1.3 0 .4 0v-.4zm-4.5-9.9h.5c-.1-.2-.2-.3-.3-.5 0 0 .1 0 .1-.1l.2.2c.1-.2.1-.3.2-.5-.7.1-.8.1-.7.9zm10.6 1.4v-.2c-.1-.1-.3-.2-.4-.2-.2.1-.3.2-.4.4 0 0 .2.3.3.3.2-.1.4-.2.5-.3zm7.3 8.5l-.6-.3c.3-.2.5-.3.7-.4 0-.1-.1-.1-.1-.2-.3.2-.6.3-.9.5.2.2.3.4.4.5.2 0 .3 0 .5-.1zM7.4 21.8c.1 0 .1 0 .2-.1-.1-.4-.2-.9-.3-1.3-.5.7.1 1 .1 1.4zm12.9-1.5h.2c0-.2.1-.5 0-.7-.1-.2-.5-.2-.7-.3 0 0 0 .1-.1.1.2.1.4.2.7.4H20c.1.2.2.4.3.5zm-7.6 7.3c.2-.2.3-.3.3-.4 0-.1-.2-.2-.3-.4-.1.1-.3.2-.3.4-.1.1.1.2.3.4zm-6.4-7.3h.2c-.1-.3.5-.8-.2-1.1-.1.4 0 .7 0 1.1zm4.9 8.4c-.2-.3-1.1-.7-1.3-.5.4.1.8.3 1.3.5zm7.9-11v-.2c-.1-.1-.3-.2-.4-.2-.1 0-.2.2-.3.3.1.1.2.2.3.2.1.1.2-.1.4-.1zm-12.3 2h-.2c.1.3.1.7.2 1 .3-.6.3-.6 0-1zm.8 5.9l.6-.3v-.1c-.3 0-.6.1-1 .1v.1c.2 0 .3.1.4.2zm.9.5c.4.2.7 0 1.1-.5-.4.2-.7.3-1.1.5zM5.8 14.2c.4 0 .4 0 .3-.8-.1.3-.2.5-.3.8zm16 7.5c.1-.4-.1-.7-.6-.9l.6.9zM9 25.5s-.1-.1 0 0c-.3 0-.7 0-1 .1 0 0 0 .1-.1.2.1 0 .2.1.2 0l.9-.3zm-3.2-8.9v-.1c-.1 0-.3-.1-.4-.1v.7c.2-.1.3-.2.4-.2-.1-.1-.3-.2-.4-.3v-.1c.2.1.3.1.4.1zm.1-2.1c-.1.2-.2.4-.2.5.3 0 .6-.1.5-.5h-.3zm-.3 6.4c.1-.1.1-.2.2-.2.2.1.4.1.5.2v-.1c-.2-.1-.3-.2-.5-.2h-.3s0 .2.1.3zm1.3 1.6c-.2-.1-.3-.2-.3-.1-.1 0-.2.1-.3.3l.2.2c.1-.2.2-.3.4-.4z" fill="#1a1a1a"/></svg>