<svg xmlns="http://www.w3.org/2000/svg" xmlns:xlink="http://www.w3.org/1999/xlink" viewBox="0 0 560 560"><defs><path id="a" d="M13 2.8h534v555.36H13z"/></defs><clipPath id="b"><use xlink:href="#a" overflow="visible"/></clipPath><path d="M438.353 536.8c-22.072 0-48.661-5.563-77.875-16.599-64.147-24.163-133.834-71.868-196.423-134.457C101.488 323.178 53.673 253.379 29.51 189.322c-21.984-58.318-21.984-106.2-.089-128.116 3.137-3.115 6.341-6.519 9.656-9.99C59.058 30.19 81.663 6.538 111.567 7.584c20.67.868 40.673 13.728 61.099 39.204 60.498 75.183 33.197 102.038 1.647 133.055l-5.563 5.563c-5.118 5.139-14.952 29.036 75.873 119.772 29.548 29.637 54.846 51.286 75.005 64.413 12.705 8.255 35.466 20.76 44.767 11.459l5.651-5.651c31.017-31.528 57.805-58.651 132.966 1.758 25.476 20.492 38.337 40.406 39.115 61.099 1.224 29.881-22.584 52.577-43.632 72.557-3.471 3.315-6.853 6.519-9.99 9.656-10.858 10.858-28.236 16.331-50.152 16.331zM109.476 25.406c-21.293 0-40.495 20.159-57.538 38.07-3.382 3.649-6.697 7.12-9.99 10.346-16.264 16.332-14.596 59.185 4.25 109.248 23.296 61.788 69.62 129.317 130.452 190.082 60.853 60.832 128.293 107.156 190.082 130.452 50.063 18.868 92.916 20.514 109.181 4.183 3.293-3.226 6.764-6.519 10.346-9.924 18.334-17.377 39.004-37.113 38.136-58.918-.601-15.041-11.548-31.106-32.507-47.971-62.567-50.329-80.123-32.596-109.159-3.137l-5.74 5.74c-13.906 13.906-36.401 10.858-66.994-9.034-21.293-13.817-47.459-36.334-77.964-66.75-75.361-75.361-99.435-121.418-75.873-145.07l5.718-5.563c29.57-29.036 47.37-46.591-3.026-109.248-16.865-20.937-33.041-31.906-47.994-32.507l-1.38.001z" clip-path="url(#b)"/></svg>