<svg xmlns="http://www.w3.org/2000/svg" viewBox="0 0 430 560"><path d="M214.78 302.377c-52.844 0-95.875-43.031-95.875-95.959 0-52.844 43.031-95.875 95.875-95.875 52.928 0 95.875 43.031 95.875 95.875 0 52.928-43.03 95.959-95.875 95.959zm0-174.931c-43.516 0-78.971 35.454-78.971 78.971 0 43.621 35.454 79.055 78.971 79.055 43.537 0 78.971-35.433 78.971-79.055 0-43.516-35.434-78.971-78.971-78.971z"/><path d="M214.78 560.562c-2.469 0-4.854-1.055-6.415-2.955-8.167-9.729-200.001-240.057-200.001-351.19C8.364 92.667 100.946 0 214.781 0c113.855 0 206.417 92.667 206.417 206.417 0 111.217-191.729 341.461-199.896 351.19-1.647 1.899-4.052 2.955-6.522 2.955zm0-543.658c-104.528 0-189.513 84.986-189.513 189.513 0 94.06 155.557 290.685 189.513 332.471 33.977-41.786 189.534-238.411 189.534-332.471 0-104.527-85.006-189.513-189.534-189.513z"/></svg>