<svg xmlns="http://www.w3.org/2000/svg" viewBox="0 0 560 560"><path d="M279.9 0C125.4 0 0 125.4 0 279.9 0 434.6 125.4 560 279.9 560 434.6 560 560 434.6 560 279.9 560 125.2 434.6 0 279.9 0zm139.5 217.2l.2 8.9c0 91.1-69.4 196.2-196.2 196.2-38.9 0-75.2-11.4-105.6-31.1 5.3.7 10.8 1 16.4 1 32.3 0 62-11.1 85.6-29.6-30.2-.5-55.5-20.5-64.4-47.9 4.2.9 8.5 1.2 13 1.2 6.3 0 12.5-.9 18.1-2.4-31.5-6.3-55.2-34.2-55.2-67.5v-.9c9.2 5.2 19.8 8.2 31.1 8.6-18.5-12.3-30.6-33.5-30.6-57.3 0-12.6 3.4-24.6 9.4-34.7 33.8 41.7 84.7 69 142 72-1.2-5-1.7-10.3-1.7-15.7 0-37.9 30.8-68.9 68.9-68.9 19.8 0 37.8 8.4 50.4 21.7 15.6-3.1 30.4-8.7 43.7-16.6-5.1 16.1-16.1 29.6-30.4 38.1 14-1.7 27.3-5.5 39.6-10.9-9.2 13.9-21 26-34.3 35.8z"/></svg>