<svg xmlns="http://www.w3.org/2000/svg" viewBox="0 0 560 560"><path d="M280 0C125.4 0 0 125.3 0 280c0 154.6 125.4 280 280 280s280-125.3 280-280S434.7 0 280 0zm142 310.3c13.1 12.8 26.9 24.8 38.6 38.8 5.2 6.2 10.1 12.7 13.8 19.9 5.3 10.3.5 21.6-8.7 22.2h-57.4c-14.8 1.2-26.6-4.7-36.5-14.9-7.9-8.1-15.3-16.7-22.9-25.1-3.1-3.4-6.4-6.6-10.3-9.2-7.8-5.1-14.6-3.5-19.1 4.6-4.6 8.3-5.6 17.5-6 26.8-.6 13.5-4.7 17.1-18.3 17.7-29 1.4-56.5-3-82.1-17.7-22.5-12.9-40-31.1-55.2-51.7-29.6-40.1-52.3-84.2-72.7-129.6-4.6-10.2-1.2-15.7 10-15.9 18.7-.4 37.4-.3 56.2 0 7.6.1 12.6 4.5 15.6 11.7 10.1 24.9 22.5 48.6 38.1 70.5 4.1 5.8 8.4 11.7 14.4 15.8 6.7 4.6 11.7 3 14.9-4.4 2-4.7 2.9-9.8 3.3-14.8 1.5-17.3 1.7-34.6-.9-51.9-1.6-10.8-7.7-17.7-18.4-19.8-5.5-1-4.7-3.1-2-6.2 4.6-5.4 9-8.8 17.6-8.8h64.8c10.2 2 12.5 6.6 13.9 16.9l.1 72c-.1 4 2 15.8 9.1 18.4 5.7 1.9 9.5-2.7 13-6.3 15.5-16.5 26.6-35.9 36.5-56.1 4.4-8.9 8.2-18.1 11.8-27.3 2.7-6.8 7-10.2 14.7-10l62.4.1c1.8 0 3.7 0 5.5.3 10.5 1.8 13.4 6.3 10.2 16.6-5.1 16.1-15.1 29.5-24.8 43-10.4 14.4-21.5 28.3-31.9 42.8-9.8 13.4-9 20.1 2.7 31.6z"/></svg>