<svg xmlns="http://www.w3.org/2000/svg" viewBox="0 0 560 560"><path d="M147.1 300.7h22.2v120.2h21V300.7h22.6V281h-65.8v19.7zm177.6 14.6c-6.9 0-13.4 3.8-19.5 11.3V281h-18.9v139.8h18.9v-10.1c6.3 7.8 12.8 11.5 19.5 11.5 7.5 0 12.6-4 15.1-11.7 1.3-4.4 1.9-11.4 1.9-21V348c0-9.9-.6-16.8-1.9-20.9-2.5-7.8-7.6-11.8-15.1-11.8zm-1.9 75.7c0 9.4-2.7 14-8.2 14-3.1 0-6.3-1.5-9.4-4.6v-63.5c3.2-3.1 6.3-4.6 9.4-4.6 5.4 0 8.2 4.8 8.2 14.2V391zm-71.7 5.2c-4.2 5.9-8.1 8.8-11.9 8.8-2.5 0-3.9-1.5-4.4-4.4-.2-.6-.2-2.9-.2-7.3v-76.7h-18.9V399c0 7.4.6 12.3 1.7 15.5 1.9 5.3 6.1 7.7 12.2 7.7 6.9 0 14.1-4.2 21.6-12.8v11.4H270V316.6h-18.9v79.6zm16.2-175.8c6.1 0 9.1-4.9 9.1-14.6v-44.3c0-9.7-3-14.6-9.1-14.6-6.2 0-9.1 4.9-9.1 14.6v44.3c0 9.7 2.9 14.6 9.1 14.6z"/><path d="M280 0C125.3 0 0 125.3 0 280c0 154.6 125.3 280 280 280 154.6 0 280-125.3 280-280S434.7 0 280 0zm31.1 131h19v77.5c0 4.5 0 6.8.2 7.4.4 3 1.9 4.5 4.5 4.5 3.8 0 7.8-3 12.1-8.9V131H366v105.3h-19.1v-11.5c-7.6 8.7-14.8 12.9-21.8 12.9-6.2 0-10.4-2.5-12.3-7.8-1-3.2-1.7-8.2-1.7-15.7V131zm-72 34.3c0-11.2 1.9-19.5 6-24.8 5.3-7.2 12.7-10.8 22.2-10.8s17 3.6 22.2 10.8c4 5.3 5.9 13.6 5.9 24.8v36.9c0 11.2-1.9 19.5-5.9 24.8-5.3 7.2-12.7 10.8-22.2 10.8s-17-3.6-22.2-10.8c-4.1-5.3-6-13.6-6-24.8v-36.9zm-51-70.3l15 55.5L217.5 95h21.4l-25.4 84v57.2h-21.2V179c-1.9-10.1-6.2-25-12.9-44.7-4.4-13.1-9.1-26.3-13.6-39.4h22.3zm242.6 335c-3.8 16.6-17.4 28.9-33.8 30.7-38.7 4.3-77.9 4.3-117 4.3-39 0-78.2 0-117-4.3-16.4-1.8-29.9-14.1-33.8-30.7-5.4-23.6-5.4-49.5-5.4-73.8 0-24.4.1-50.2 5.5-73.8 3.8-16.6 17.4-28.9 33.7-30.7 38.7-4.3 78-4.3 117-4.3 39.1 0 78.2 0 117 4.3 16.4 1.8 30 14.1 33.8 30.7 5.4 23.7 5.4 49.5 5.4 73.8.1 24.3.1 50.2-5.4 73.8z"/><path d="M384.8 315.3c-9.6 0-17.1 3.6-22.6 10.7-4 5.3-5.8 13.4-5.8 24.6v36.5c0 11 2 19.3 6 24.5 5.5 7.1 13 10.7 22.9 10.7s17.6-3.7 22.8-11.3c2.3-3.3 3.8-7.1 4.4-11.3.2-1.9.4-6.1.4-12.2v-2.7h-19.2c0 7.5-.3 11.7-.4 12.8-1.1 5-3.8 7.5-8.5 7.5-6.5 0-9.6-4.8-9.6-14.4v-18.5H413v-21.6c0-11.1-1.9-19.3-5.8-24.6-5.4-7.1-12.9-10.7-22.4-10.7zm9.3 41.1h-18.9v-9.6c0-9.7 3.2-14.5 9.5-14.5s9.4 4.8 9.4 14.5v9.6z"/></svg>